<svg width="140" height="140" viewBox="0 0 140 140" xmlns="http://www.w3.org/2000/svg">
  <defs>
    <linearGradient id="agriGrad" x1="0%" y1="0%" x2="100%" y2="100%">
      <stop offset="0%" stop-color="#8bc34a"/>
      <stop offset="100%" stop-color="#4e7d2e"/>
    </linearGradient>
  </defs>

  <!-- Cercle de fond -->
  <circle cx="70" cy="70" r="60" fill="url(#agriGrad)" stroke="#ffffff55" stroke-width="4"/>

  <!-- Goutte -->
  <path d="M70 35 C55 55 50 65 50 75 C50 90 60 100 70 100 C80 100 90 90 90 75 C90 65 85 55 70 35Z"
        fill="#ffffffdd"/>

  <!-- Feuille gauche -->
  <path d="M40 80 C30 70 30 55 45 50 C55 48 60 55 62 62 C64 70 60 85 40 80Z"
        fill="#ffffffaa"/>

  <!-- Feuille droite -->
  <path d="M100 80 C110 70 110 55 95 50 C85 48 80 55 78 62 C76 70 80 85 100 80Z"
        fill="#ffffffaa"/>

  <!-- Texte -->
  <text x="70" y="125" font-size="16" font-family="Inter, Arial" fill="#ffffffdd" text-anchor="middle">
    Pulvérisateur Malin
  </text>
</svg>
